PathFileType	4	(X/Y/Z)	/Users/niels/Desktop/University/Third Semester/Perception and Action/Exam/Gymnastics Motion Tracking/Code for Gym Tracking/Analyzed Data/Webcam_Backflip/id3_1_trajectory_Sports2D/id3_1_trajectory_Sports2D_px_person00.trc
DataRate	CameraRate	NumFrames	NumMarkers	Units	OrigDataRate	OrigDataStartFrame	OrigNumFrames
29.708737864077673	29.708737864077673	10	22	m	29.708737864077673	25	103
Frame#	Time	Hip			RHip			RKnee			RAnkle			RBigToe			RSmallToe			RHeel			LHip			LKnee			LAnkle			LBigToe			LSmallToe			LHeel			Neck			Head			Nose			RShoulder			RElbow			RWrist			LShoulder			LElbow			LWrist		
		X1	Y1	Z1	X2	Y2	Z2	X3	Y3	Z3	X4	Y4	Z4	X5	Y5	Z5	X6	Y6	Z6	X7	Y7	Z7	X8	Y8	Z8	X9	Y9	Z9	X10	Y10	Z10	X11	Y11	Z11	X12	Y12	Z12	X13	Y13	Z13	X14	Y14	Z14	X15	Y15	Z15	X16	Y16	Z16	X17	Y17	Z17	X18	Y18	Z18	X19	Y19	Z19	X20	Y20	Z20	X21	Y21	Z21	X22	Y22	Z22
25	0.8415032679738562	0.8638148937932535	-0.39417082788047897	0.0	0.8586896936261436	-0.40056734570414027	0.0	0.824566157668878	-0.5236353812759663	0.0	0.7843388992356949	-0.6454127361042984	0.0	0.8268474382038251	-0.6878859552559695	0.0	0.8115194811040847	-0.6856323771854301	0.0	0.7740255774849736	-0.6566779741295713	0.0	0.8653337201567255	-0.38749159927779697	0.0	0.8461108234020691	-0.5067130627712659	0.0	0.7881036500897854	-0.6332362518650709	0.0	0.8322974169664227	-0.6715576860915039	0.0	0.8212789178283817	-0.666064462115511	0.0	0.7846262528733481	-0.6425151874904784	0.0	1.0202814960623323	-0.389949281203376	0.0	1.114520512352197	-0.38444193787232517	0.0	1.0713569837005295	-0.4146440175718816	0.0	1.0017999390355912	-0.38859872981604265	0.0	0.994706941302715	-0.4552366103887121	0.0	1.0347322079908707	-0.5119054877456237	0.0	1.0172949865091139	-0.378172091161615	0.0	1.0206425036703988	-0.45670036890766136	0.0	1.0512473684638397	-0.506262402920478	0.0
26	0.8751633986928105	0.8587423998535288	-0.44580114618460354	0.0	0.8549160463100133	-0.45206255282930574	0.0	0.8359267552660288	-0.5774799139940867	0.0	0.8098227785330488	-0.7047031243677281	0.0	0.8571078980243986	-0.7407763985891918	0.0	0.8426681262194925	-0.7415635360753754	0.0	0.8006525207208389	-0.7195373787986665	0.0	0.8593926435618428	-0.44206411238720855	0.0	0.8510522873621095	-0.5645575141706418	0.0	0.8126336870010313	-0.6920429748038094	0.0	0.8606615666263514	-0.7262698845411663	0.0	0.8499921217443884	-0.72044100052356	0.0	0.8085049691430393	-0.7044887941863484	0.0	1.0101015843793115	-0.40064182243017155	0.0	1.1021868450059387	-0.38086338983650403	0.0	1.0656316420792737	-0.4158887586865288	0.0	0.9960426453740229	-0.3999450314451043	0.0	1.0174031230038112	-0.45886877151564287	0.0	1.0770350573057705	-0.4986695623430231	0.0	1.0063473389518318	-0.39175848204043046	0.0	1.0381192452113603	-0.46368645461667435	0.0	1.0851807172103796	-0.49678152917927454	0.0
27	0.9088235294117647	0.8582441285188565	-0.501319544517929	0.0	0.8554861570429042	-0.5067693415781052	0.0	0.8479897772089382	-0.6330739407224361	0.0	0.8314091178549035	-0.7622622229742614	0.0	0.8812443837305617	-0.7918123954395612	0.0	0.8675832677642507	-0.7948031871205904	0.0	0.8230819305696525	-0.7793313172955748	0.0	0.8586817050460637	-0.4998554907630421	0.0	0.857028075509421	-0.6239170102726165	0.0	0.8336655384216648	-0.7490075989714341	0.0	0.8830868059703886	-0.7786330935712383	0.0	0.8737719648732558	-0.7728229255553932	0.0	0.8283453605151282	-0.7639560221822144	0.0	0.9961574698463159	-0.4183429282646886	0.0	1.08242545932007	-0.3859928699912694	0.0	1.0537110489272572	-0.42375588770208195	0.0	0.9858624886927406	-0.41751728734480986	0.0	1.0293564668613948	-0.4586429134959671	0.0	1.1001936847358846	-0.47590075887772637	0.0	0.9926232784448421	-0.41282863523037067	0.0	1.0474240581770113	-0.4687444015991137	0.0	1.103406546838257	-0.4806708072930444	0.0
28	0.9424836601307189	0.8619374677842961	-0.5577707607506628	0.0	0.8596344913774976	-0.5618810382218745	0.0	0.8593858039500687	-0.6886091638472805	0.0	0.8470329613136189	-0.8166431697258459	0.0	0.8980746808048706	-0.8400409532596292	0.0	0.8840944101597085	-0.8439447052838354	0.0	0.839062939161257	-0.8344620647531474	0.0	0.8626402750257876	-0.5575147801677561	0.0	0.8643698339143192	-0.6819998133144656	0.0	0.8491885510253544	-0.8028551111463282	0.0	0.8985439258715278	-0.82716378390528	0.0	0.890632458697585	-0.822265901566294	0.0	0.8421994092800249	-0.8191834438903259	0.0	0.9799029941308188	-0.44254364848071825	0.0	1.057975710533214	-0.3989443367288018	0.0	1.0373332633297272	-0.43831102683584133	0.0	0.9719536194050048	-0.4414685928277214	0.0	1.0288936468794174	-0.4585323881046708	0.0	1.1017153208756016	-0.45159301574758803	0.0	0.9778220878418302	-0.4406738545010438	0.0	1.0474496997134022	-0.47411454035173506	0.0	1.1044695481999858	-0.4638230354794541	0.0
29	0.9761437908496732	0.8685016708616574	-0.6119415413194266	0.0	0.8660126216618047	-0.6144843808788687	0.0	0.8688695387949285	-0.7417270601760118	0.0	0.8560646797352203	-0.8658867089377275	0.0	0.9079631861527748	-0.8835100421188667	0.0	0.8919353025040425	-0.8871011714737721	0.0	0.8478908950490063	-0.8831825998584298	0.0	0.8695135751407491	-0.6118336948420428	0.0	0.8719933199042815	-0.7362168404563004	0.0	0.8584745913534874	-0.8518452300276194	0.0	0.9070619304489944	-0.8698595048357646	0.0	0.8999918483015915	-0.8669521131654603	0.0	0.84919442955239	-0.868340628459993	0.0	0.9627114953403801	-0.47159625937028854	0.0	1.0316162315715824	-0.41810098741140006	0.0	1.0183076801050912	-0.45857245850949735	0.0	0.9554681072670793	-0.47075452257343575	0.0	1.0172287288277666	-0.4618656010530615	0.0	1.083728143980544	-0.4326505585410441	0.0	0.9632486190525208	-0.47315670916151503	0.0	1.0388691698839132	-0.48121515785883257	0.0	1.0903075233558512	-0.45069797826586244	0.0
30	1.0098039215686274	0.8761313149804605	-0.6605627354839382	0.0	0.8730394353233539	-0.6616267512271651	0.0	0.8756757841245394	-0.7895603415367375	0.0	0.8593960985064862	-0.9079062032133132	0.0	0.9128724371665543	-0.9201443504522858	0.0	0.8927587865998432	-0.9225655767169316	0.0	0.8505035409556524	-0.9238919487645519	0.0	0.8770945543988851	-0.6598240730898354	0.0	0.8786539958580368	-0.7839263945772817	0.0	0.8622252281032123	-0.8939882565030708	0.0	0.9099348568071902	-0.9047415910742461	0.0	0.9028559078375828	-0.9046099455028265	0.0	0.8498227338563586	-0.909718190505173	0.0	0.9461188320668298	-0.5026622439215253	0.0	1.0061286834084227	-0.44085327058864116	0.0	0.9988382129517425	-0.48217291094381154	0.0	0.93829220197161	-0.5027532426354328	0.0	0.9979761235334794	-0.4697655201664193	0.0	1.0520290145866462	-0.42273974435061706	0.0	0.9499353474602774	-0.5069134715754504	0.0	1.0241037001519564	-0.49034726191963357	0.0	1.0654569229579167	-0.44344322136953485	0.0
31	1.0434640522875815	0.8831682479350627	-0.7003992784648718	0.0	0.8793304796776795	-0.7002832117967241	0.0	0.8798476528019928	-0.8288248246194104	0.0	0.8589501765209867	-0.9406551040341579	0.0	0.9154393623943773	-0.9483526231326332	0.0	0.8893068092007087	-0.9491723511907302	0.0	0.8490778329014231	-0.9551009185147191	0.0	0.8836266892631677	-0.6986698792574038	0.0	0.8837014113485683	-0.822328332678168	0.0	0.862238691552756	-0.9271407456197844	0.0	0.9095106257426372	-0.9304948116604771	0.0	0.9015771683426427	-0.9331083681109675	0.0	0.8458950974441856	-0.9416728791806939	0.0	0.9317618007435787	-0.5318440947919989	0.0	0.9842038351168236	-0.4636215124136917	0.0	0.9814102607499627	-0.5054872804061941	0.0	0.9226966925031198	-0.5333042656495012	0.0	0.9757659924283184	-0.48052853620424085	0.0	1.014229192007271	-0.42145393686448895	0.0	0.9388122232838075	-0.5377138965162893	0.0	1.0066871325907445	-0.5003173637209066	0.0	1.0357067803078304	-0.4416898294177188	0.0
32	1.077124183006536	0.8885833876006568	-0.728487070112821	0.0	0.8840679981253293	-0.7275135572844673	0.0	0.8821839777646414	-0.8561354402237523	0.0	0.856833156212839	-0.9623099846729906	0.0	0.9173676976577059	-0.9671248510558019	0.0	0.8843343379235747	-0.9663432447588522	0.0	0.8461334665268567	-0.9754634658568117	0.0	0.8883390362576761	-0.7257795544837223	0.0	0.8871833405311386	-0.8486588814042255	0.0	0.8606568892437884	-0.9492609372743316	0.0	0.9082117096521729	-0.9467824850271165	0.0	0.8989407301759752	-0.9510443040098134	0.0	0.8401538693765986	-0.9626881149395997	0.0	0.9209914510770172	-0.554802598850221	0.0	0.9678535428227685	-0.48233917154736167	0.0	0.9680826931783229	-0.5243013494564686	0.0	0.9105444633106997	-0.5575187693728453	0.0	0.954815669390861	-0.49039104522510096	0.0	0.977702776661091	-0.42499640662984817	0.0	0.9306633707025281	-0.5611713384949945	0.0	0.9902583769229906	-0.5084174084875966	0.0	1.006769377872749	-0.44289674050656713	0.0
33	1.1107843137254902	0.8921349548863735	-0.7427676232497794	0.0	0.8871217711294392	-0.7411119991563857	0.0	0.883748585840777	-0.868892687759952	0.0	0.8546519760048906	-0.9717713616221557	0.0	0.918700909520517	-0.9758835146280649	0.0	0.8799100415438516	-0.9740026388982775	0.0	0.843557916484624	-0.9842098455327064	0.0	0.8913563014178293	-0.7392326348917408	0.0	0.8895560433812025	-0.8608210642742007	0.0	0.8591893766793073	-0.9590025614392976	0.0	0.9075530687964822	-0.9539912205538461	0.0	0.8971589440292284	-0.9581106998287171	0.0	0.8354330931499486	-0.971856107031047	0.0	0.9144438043672493	-0.5677874562045857	0.0	0.9576556524111791	-0.4931079008092722	0.0	0.9597515262331674	-0.5346830533288299	0.0	0.9027372081730249	-0.5711561289611427	0.0	0.9380655998377339	-0.4951126460132076	0.0	0.9480328521524534	-0.4279333227664415	0.0	0.9258536807865331	-0.573758258606409	0.0	0.9776023814149416	-0.5113142969352499	0.0	0.9831869735236202	-0.44328244074313705	0.0
34	1.1444444444444444	0.8941898477271862	-0.74268583188584	0.0	0.8889134752156548	-0.7403564641850384	0.0	0.8853871022796366	-0.8663619723416306	0.0	0.8532956581546931	-0.9690130809599269	0.0	0.9187288358254666	-0.974368076014138	0.0	0.8772726865951743	-0.9722725423942506	0.0	0.8421862897597298	-0.9814649601191077	0.0	0.8931993653365288	-0.7383983397751124	0.0	0.8913416143012338	-0.8582315622345255	0.0	0.8586989038255711	-0.9561525588867605	0.0	0.9079797809682555	-0.952602458621627	0.0	0.8973826857070872	-0.9550188162183088	0.0	0.8335641454822338	-0.9693345769190761	0.0	0.9118924872731148	-0.5685673535208384	0.0	0.9528402303112293	-0.49298516481693755	0.0	0.9560936440189736	-0.5339297380053725	0.0	0.8992099788034702	-0.5717794746014279	0.0	0.9269765938945621	-0.49149054298279027	0.0	0.9282855832722109	-0.4252472483337357	0.0	0.9241465132833108	-0.5735951754648589	0.0	0.9701238073951876	-0.5064195454911564	0.0	0.9676620342347306	-0.4391772185627498	0.0
